<mxfile host="65bd71144e">
    <diagram id="4oUEzURUMMLEd8YwWwql" name="第 1 页">
        <mxGraphModel dx="1121" dy="541" grid="1" gridSize="10" guides="1" tooltips="1" connect="1" arrows="1" fold="1" page="1" pageScale="1" pageWidth="827" pageHeight="1169" math="0" shadow="0">
            <root>
                <mxCell id="0"/>
                <mxCell id="1" parent="0"/>
                <mxCell id="2" value="" style="rounded=0;whiteSpace=wrap;html=1;" vertex="1" parent="1">
                    <mxGeometry x="80" y="130" width="560" height="320" as="geometry"/>
                </mxCell>
                <mxCell id="3" value="访客" style="text;html=1;strokeColor=none;fillColor=none;align=center;verticalAlign=middle;whiteSpace=wrap;rounded=0;" vertex="1" parent="1">
                    <mxGeometry x="80" y="100" width="60" height="30" as="geometry"/>
                </mxCell>
                <mxCell id="4" value="&#10;&lt;span style=&quot;color: rgb(0, 0, 0); font-family: Helvetica; font-size: 12px; font-style: normal; font-variant-ligatures: normal; font-variant-caps: normal; font-weight: 400; letter-spacing: normal; orphans: 2; text-align: center; text-indent: 0px; text-transform: none; widows: 2; word-spacing: 0px; -webkit-text-stroke-width: 0px; background-color: rgb(251, 251, 251); text-decoration-thickness: initial; text-decoration-style: initial; text-decoration-color: initial; float: none; display: inline !important;&quot;&gt;编辑/预览/删除&lt;/span&gt;&#10;&#10;" style="rounded=0;whiteSpace=wrap;html=1;" vertex="1" parent="1">
                    <mxGeometry x="80" y="530" width="560" height="320" as="geometry"/>
                </mxCell>
                <mxCell id="5" value="创作者" style="text;html=1;strokeColor=none;fillColor=none;align=center;verticalAlign=middle;whiteSpace=wrap;rounded=0;" vertex="1" parent="1">
                    <mxGeometry x="80" y="500" width="60" height="30" as="geometry"/>
                </mxCell>
                <mxCell id="6" value="" style="rounded=0;whiteSpace=wrap;html=1;" vertex="1" parent="1">
                    <mxGeometry x="80" y="130" width="560" height="40" as="geometry"/>
                </mxCell>
                <mxCell id="7" value="xxx的博客" style="rounded=0;whiteSpace=wrap;html=1;" vertex="1" parent="1">
                    <mxGeometry x="80" y="130" width="120" height="40" as="geometry"/>
                </mxCell>
                <mxCell id="8" value="登录/退出" style="rounded=0;whiteSpace=wrap;html=1;" vertex="1" parent="1">
                    <mxGeometry x="520" y="130" width="120" height="40" as="geometry"/>
                </mxCell>
                <mxCell id="9" value="顶部导航" style="text;html=1;strokeColor=none;fillColor=none;align=center;verticalAlign=middle;whiteSpace=wrap;rounded=0;" vertex="1" parent="1">
                    <mxGeometry x="660" y="135" width="60" height="30" as="geometry"/>
                </mxCell>
                <mxCell id="10" value="文章A" style="rounded=0;whiteSpace=wrap;html=1;" vertex="1" parent="1">
                    <mxGeometry x="150" y="210" width="450" height="60" as="geometry"/>
                </mxCell>
                <mxCell id="11" value="文章A" style="rounded=0;whiteSpace=wrap;html=1;" vertex="1" parent="1">
                    <mxGeometry x="150" y="290" width="450" height="60" as="geometry"/>
                </mxCell>
                <mxCell id="12" value="文章A" style="rounded=0;whiteSpace=wrap;html=1;" vertex="1" parent="1">
                    <mxGeometry x="150" y="370" width="450" height="60" as="geometry"/>
                </mxCell>
                <mxCell id="13" value="查询详情" style="rounded=0;whiteSpace=wrap;html=1;" vertex="1" parent="1">
                    <mxGeometry x="520" y="240" width="60" height="20" as="geometry"/>
                </mxCell>
                <mxCell id="14" value="查询详情" style="rounded=0;whiteSpace=wrap;html=1;" vertex="1" parent="1">
                    <mxGeometry x="520" y="320" width="60" height="20" as="geometry"/>
                </mxCell>
                <mxCell id="15" value="查询详情" style="rounded=0;whiteSpace=wrap;html=1;" vertex="1" parent="1">
                    <mxGeometry x="520" y="400" width="60" height="20" as="geometry"/>
                </mxCell>
                <mxCell id="16" value="" style="rounded=0;whiteSpace=wrap;html=1;" vertex="1" parent="1">
                    <mxGeometry x="80" y="530" width="560" height="40" as="geometry"/>
                </mxCell>
                <mxCell id="17" value="xxx的博客" style="rounded=0;whiteSpace=wrap;html=1;" vertex="1" parent="1">
                    <mxGeometry x="80" y="530" width="120" height="40" as="geometry"/>
                </mxCell>
                <mxCell id="18" value="欢迎xxxx&amp;nbsp; &amp;nbsp;退出" style="rounded=0;whiteSpace=wrap;html=1;" vertex="1" parent="1">
                    <mxGeometry x="520" y="530" width="120" height="40" as="geometry"/>
                </mxCell>
                <mxCell id="19" value="" style="rounded=0;whiteSpace=wrap;html=1;" vertex="1" parent="1">
                    <mxGeometry x="80" y="570" width="120" height="280" as="geometry"/>
                </mxCell>
                <mxCell id="20" value="侧边栏导航" style="text;html=1;strokeColor=none;fillColor=none;align=center;verticalAlign=middle;whiteSpace=wrap;rounded=0;" vertex="1" parent="1">
                    <mxGeometry x="110" y="675" width="60" height="30" as="geometry"/>
                </mxCell>
                <mxCell id="21" value="文章管理" style="rounded=0;whiteSpace=wrap;html=1;" vertex="1" parent="1">
                    <mxGeometry x="80" y="570" width="120" height="30" as="geometry"/>
                </mxCell>
                <mxCell id="22" value="" style="rounded=0;whiteSpace=wrap;html=1;" vertex="1" parent="1">
                    <mxGeometry x="80" y="600" width="120" height="30" as="geometry"/>
                </mxCell>
                <mxCell id="23" value="" style="rounded=0;whiteSpace=wrap;html=1;" vertex="1" parent="1">
                    <mxGeometry x="80" y="630" width="120" height="30" as="geometry"/>
                </mxCell>
                <mxCell id="26" value="文章创建" style="rounded=0;whiteSpace=wrap;html=1;" vertex="1" parent="1">
                    <mxGeometry x="230" y="585" width="90" height="30" as="geometry"/>
                </mxCell>
                <mxCell id="67" style="edgeStyle=orthogonalEdgeStyle;html=1;exitX=1;exitY=0.5;exitDx=0;exitDy=0;entryX=1.001;entryY=0.272;entryDx=0;entryDy=0;entryPerimeter=0;" edge="1" parent="1" source="45" target="66">
                    <mxGeometry relative="1" as="geometry">
                        <Array as="points">
                            <mxPoint x="770" y="717"/>
                            <mxPoint x="770" y="967"/>
                        </Array>
                    </mxGeometry>
                </mxCell>
                <mxCell id="68" value="跳转到编辑页面" style="edgeLabel;html=1;align=center;verticalAlign=middle;resizable=0;points=[];" vertex="1" connectable="0" parent="67">
                    <mxGeometry x="-0.0326" y="-3" relative="1" as="geometry">
                        <mxPoint as="offset"/>
                    </mxGeometry>
                </mxCell>
                <mxCell id="45" value="Assets" style="childLayout=tableLayout;recursiveResize=0;strokeColor=#98bf21;fillColor=#A7C942;shadow=1;" vertex="1" parent="1">
                    <mxGeometry x="230" y="630" width="380" height="173" as="geometry"/>
                </mxCell>
                <mxCell id="46" style="shape=tableRow;horizontal=0;startSize=0;swimlaneHead=0;swimlaneBody=0;top=0;left=0;bottom=0;right=0;dropTarget=0;collapsible=0;recursiveResize=0;expand=0;fontStyle=0;strokeColor=inherit;fillColor=#ffffff;" vertex="1" parent="45">
                    <mxGeometry width="380" height="35" as="geometry"/>
                </mxCell>
                <mxCell id="47" value="Title 1" style="connectable=0;recursiveResize=0;strokeColor=inherit;fillColor=#A7C942;align=center;fontStyle=1;fontColor=#FFFFFF;html=1;" vertex="1" parent="46">
                    <mxGeometry width="127" height="35" as="geometry">
                        <mxRectangle width="127" height="35" as="alternateBounds"/>
                    </mxGeometry>
                </mxCell>
                <mxCell id="48" value="Title 2" style="connectable=0;recursiveResize=0;strokeColor=inherit;fillColor=#A7C942;align=center;fontStyle=1;fontColor=#FFFFFF;html=1;" vertex="1" parent="46">
                    <mxGeometry x="127" width="126" height="35" as="geometry">
                        <mxRectangle width="126" height="35" as="alternateBounds"/>
                    </mxGeometry>
                </mxCell>
                <mxCell id="49" value="操作" style="connectable=0;recursiveResize=0;strokeColor=inherit;fillColor=#A7C942;align=center;fontStyle=1;fontColor=#FFFFFF;html=1;" vertex="1" parent="46">
                    <mxGeometry x="253" width="127" height="35" as="geometry">
                        <mxRectangle width="127" height="35" as="alternateBounds"/>
                    </mxGeometry>
                </mxCell>
                <mxCell id="50" value="" style="shape=tableRow;horizontal=0;startSize=0;swimlaneHead=0;swimlaneBody=0;top=0;left=0;bottom=0;right=0;dropTarget=0;collapsible=0;recursiveResize=0;expand=0;fontStyle=0;strokeColor=inherit;fillColor=#ffffff;" vertex="1" parent="45">
                    <mxGeometry y="35" width="380" height="34" as="geometry"/>
                </mxCell>
                <mxCell id="51" value="Value 1" style="connectable=0;recursiveResize=0;strokeColor=inherit;fillColor=inherit;align=center;whiteSpace=wrap;html=1;" vertex="1" parent="50">
                    <mxGeometry width="127" height="34" as="geometry">
                        <mxRectangle width="127" height="34" as="alternateBounds"/>
                    </mxGeometry>
                </mxCell>
                <mxCell id="52" value="Value 2" style="connectable=0;recursiveResize=0;strokeColor=inherit;fillColor=inherit;align=center;whiteSpace=wrap;html=1;" vertex="1" parent="50">
                    <mxGeometry x="127" width="126" height="34" as="geometry">
                        <mxRectangle width="126" height="34" as="alternateBounds"/>
                    </mxGeometry>
                </mxCell>
                <mxCell id="53" value="编辑/预览/删除" style="connectable=0;recursiveResize=0;strokeColor=inherit;fillColor=inherit;align=center;whiteSpace=wrap;html=1;" vertex="1" parent="50">
                    <mxGeometry x="253" width="127" height="34" as="geometry">
                        <mxRectangle width="127" height="34" as="alternateBounds"/>
                    </mxGeometry>
                </mxCell>
                <mxCell id="54" value="" style="shape=tableRow;horizontal=0;startSize=0;swimlaneHead=0;swimlaneBody=0;top=0;left=0;bottom=0;right=0;dropTarget=0;collapsible=0;recursiveResize=0;expand=0;fontStyle=1;strokeColor=inherit;fillColor=#EAF2D3;" vertex="1" parent="45">
                    <mxGeometry y="69" width="380" height="33" as="geometry"/>
                </mxCell>
                <mxCell id="55" value="Value 4" style="connectable=0;recursiveResize=0;strokeColor=inherit;fillColor=inherit;whiteSpace=wrap;html=1;" vertex="1" parent="54">
                    <mxGeometry width="127" height="33" as="geometry">
                        <mxRectangle width="127" height="33" as="alternateBounds"/>
                    </mxGeometry>
                </mxCell>
                <mxCell id="56" value="Value 5" style="connectable=0;recursiveResize=0;strokeColor=inherit;fillColor=inherit;whiteSpace=wrap;html=1;" vertex="1" parent="54">
                    <mxGeometry x="127" width="126" height="33" as="geometry">
                        <mxRectangle width="126" height="33" as="alternateBounds"/>
                    </mxGeometry>
                </mxCell>
                <mxCell id="57" value="编辑/预览/删除" style="connectable=0;recursiveResize=0;strokeColor=inherit;fillColor=inherit;whiteSpace=wrap;html=1;" vertex="1" parent="54">
                    <mxGeometry x="253" width="127" height="33" as="geometry">
                        <mxRectangle width="127" height="33" as="alternateBounds"/>
                    </mxGeometry>
                </mxCell>
                <mxCell id="58" value="" style="shape=tableRow;horizontal=0;startSize=0;swimlaneHead=0;swimlaneBody=0;top=0;left=0;bottom=0;right=0;dropTarget=0;collapsible=0;recursiveResize=0;expand=0;fontStyle=0;strokeColor=inherit;fillColor=#ffffff;" vertex="1" parent="45">
                    <mxGeometry y="102" width="380" height="38" as="geometry"/>
                </mxCell>
                <mxCell id="59" value="Value 7" style="connectable=0;recursiveResize=0;strokeColor=inherit;fillColor=inherit;fontStyle=0;align=center;whiteSpace=wrap;html=1;" vertex="1" parent="58">
                    <mxGeometry width="127" height="38" as="geometry">
                        <mxRectangle width="127" height="38" as="alternateBounds"/>
                    </mxGeometry>
                </mxCell>
                <mxCell id="60" value="Value 8" style="connectable=0;recursiveResize=0;strokeColor=inherit;fillColor=inherit;fontStyle=0;align=center;whiteSpace=wrap;html=1;" vertex="1" parent="58">
                    <mxGeometry x="127" width="126" height="38" as="geometry">
                        <mxRectangle width="126" height="38" as="alternateBounds"/>
                    </mxGeometry>
                </mxCell>
                <mxCell id="61" value="编辑/预览/删除" style="connectable=0;recursiveResize=0;strokeColor=inherit;fillColor=inherit;fontStyle=0;align=center;whiteSpace=wrap;html=1;" vertex="1" parent="58">
                    <mxGeometry x="253" width="127" height="38" as="geometry">
                        <mxRectangle width="127" height="38" as="alternateBounds"/>
                    </mxGeometry>
                </mxCell>
                <mxCell id="62" value="" style="shape=tableRow;horizontal=0;startSize=0;swimlaneHead=0;swimlaneBody=0;top=0;left=0;bottom=0;right=0;dropTarget=0;collapsible=0;recursiveResize=0;expand=0;fontStyle=1;strokeColor=inherit;fillColor=#EAF2D3;" vertex="1" parent="45">
                    <mxGeometry y="140" width="380" height="33" as="geometry"/>
                </mxCell>
                <mxCell id="63" value="Value 10" style="connectable=0;recursiveResize=0;strokeColor=inherit;fillColor=inherit;whiteSpace=wrap;html=1;" vertex="1" parent="62">
                    <mxGeometry width="127" height="33" as="geometry">
                        <mxRectangle width="127" height="33" as="alternateBounds"/>
                    </mxGeometry>
                </mxCell>
                <mxCell id="64" value="Value 11" style="connectable=0;recursiveResize=0;strokeColor=inherit;fillColor=inherit;whiteSpace=wrap;html=1;" vertex="1" parent="62">
                    <mxGeometry x="127" width="126" height="33" as="geometry">
                        <mxRectangle width="126" height="33" as="alternateBounds"/>
                    </mxGeometry>
                </mxCell>
                <mxCell id="65" value="编辑/预览/删除" style="connectable=0;recursiveResize=0;strokeColor=inherit;fillColor=inherit;whiteSpace=wrap;html=1;" vertex="1" parent="62">
                    <mxGeometry x="253" width="127" height="33" as="geometry">
                        <mxRectangle width="127" height="33" as="alternateBounds"/>
                    </mxGeometry>
                </mxCell>
                <mxCell id="66" value="" style="rounded=0;whiteSpace=wrap;html=1;" vertex="1" parent="1">
                    <mxGeometry x="80" y="880" width="560" height="320" as="geometry"/>
                </mxCell>
                <mxCell id="71" value="" style="rounded=0;whiteSpace=wrap;html=1;" vertex="1" parent="1">
                    <mxGeometry x="80" y="880" width="560" height="40" as="geometry"/>
                </mxCell>
                <mxCell id="72" value="maridown内容编辑区, 默认controle + s 保持" style="rounded=0;whiteSpace=wrap;html=1;" vertex="1" parent="1">
                    <mxGeometry x="105" y="979" width="510" height="190" as="geometry"/>
                </mxCell>
                <mxCell id="73" value="名称" style="rounded=0;whiteSpace=wrap;html=1;" vertex="1" parent="1">
                    <mxGeometry x="100" y="950" width="120" height="20" as="geometry"/>
                </mxCell>
                <mxCell id="74" value="概要" style="rounded=0;whiteSpace=wrap;html=1;" vertex="1" parent="1">
                    <mxGeometry x="250" y="950" width="120" height="20" as="geometry"/>
                </mxCell>
                <mxCell id="75" value="添加标签" style="rounded=0;whiteSpace=wrap;html=1;" vertex="1" parent="1">
                    <mxGeometry x="400" y="950" width="120" height="20" as="geometry"/>
                </mxCell>
                <mxCell id="76" value="保持" style="rounded=0;whiteSpace=wrap;html=1;" vertex="1" parent="1">
                    <mxGeometry x="560" y="950" width="55" height="20" as="geometry"/>
                </mxCell>
                <mxCell id="77" value="xxx的博客" style="rounded=0;whiteSpace=wrap;html=1;" vertex="1" parent="1">
                    <mxGeometry x="80" y="880" width="120" height="40" as="geometry"/>
                </mxCell>
                <mxCell id="78" value="欢迎xxxx&amp;nbsp; &amp;nbsp;退出" style="rounded=0;whiteSpace=wrap;html=1;" vertex="1" parent="1">
                    <mxGeometry x="520" y="880" width="120" height="40" as="geometry"/>
                </mxCell>
            </root>
        </mxGraphModel>
    </diagram>
</mxfile>